<svg width="16" height="20" viewBox="0 0 16 20" fill="none" xmlns="http://www.w3.org/2000/svg">
<g id="Vector">
<path id="Vector-11" fill-rule="evenodd" clip-rule="evenodd" d="M11.2354 3.74516C11.2354 5.81355 9.55867 7.49031 7.49027 7.49031C5.42188 7.49031 3.74512 5.81355 3.74512 3.74516C3.74512 1.67676 5.42188 0 7.49027 0C9.55867 0 11.2354 1.67676 11.2354 3.74516Z" stroke="white" stroke-width="1.5" stroke-linecap="round" stroke-linejoin="round"/>
<path id="Vector-12" d="M0.74967 14.6261C0.737384 14.2121 0.391786 13.8864 -0.0222458 13.8987C-0.436277 13.9109 -0.761956 14.2565 -0.74967 14.6706L0.74967 14.6261ZM4.60995 18.9982V18.2482C4.60285 18.2482 4.59576 18.2483 4.58866 18.2485L4.60995 18.9982ZM10.3707 18.9982L10.392 18.2485C10.3849 18.2483 10.3778 18.2482 10.3707 18.2482L10.3707 18.9982ZM15.7303 14.6706C15.7426 14.2565 15.4169 13.9109 15.0029 13.8987C14.5888 13.8864 14.2432 14.2121 14.231 14.6261L15.7303 14.6706ZM14.231 14.4731C14.2432 14.8871 14.5888 15.2128 15.0029 15.2005C15.4169 15.1882 15.7426 14.8426 15.7303 14.4286L14.231 14.4731ZM10.3707 10.101V10.851C10.3778 10.851 10.3849 10.8509 10.392 10.8507L10.3707 10.101ZM4.60995 10.101L4.58866 10.8507C4.59576 10.8509 4.60285 10.851 4.60995 10.851L4.60995 10.101ZM-0.74967 14.4286C-0.761956 14.8426 -0.436277 15.1882 -0.0222458 15.2005C0.391786 15.2128 0.737384 14.8871 0.74967 14.4731L-0.74967 14.4286ZM-0.74967 14.6706C-0.663997 17.5577 1.744 19.8298 4.63123 19.7479L4.58866 18.2485C2.52877 18.3069 0.810793 16.6859 0.74967 14.6261L-0.74967 14.6706ZM4.60995 19.7482H10.3707V18.2482H4.60995V19.7482ZM10.3494 19.7479C13.2366 19.8298 15.6446 17.5577 15.7303 14.6706L14.231 14.6261C14.1698 16.6859 12.4519 18.3069 10.392 18.2485L10.3494 19.7479ZM15.7303 14.4286C15.6446 11.5415 13.2366 9.26937 10.3494 9.35133L10.392 10.8507C12.4519 10.7923 14.1698 12.4133 14.231 14.4731L15.7303 14.4286ZM10.3707 9.35103H4.60995V10.851H10.3707V9.35103ZM4.63123 9.35133C1.744 9.26937 -0.663997 11.5415 -0.74967 14.4286L0.74967 14.4731C0.810793 12.4133 2.52877 10.7923 4.58866 10.8507L4.63123 9.35133Z" fill="white"/>
</g>
</svg>
