<svg width="20" height="20" viewBox="0 0 20 20" fill="none" xmlns="http://www.w3.org/2000/svg">
<g id="shopping-bag">
<path id="Shape" fill-rule="evenodd" clip-rule="evenodd" d="M4.28571 20H15.4286H15.5714C16.7143 20 17.7857 19.5 18.5714 18.6429C19.3571 17.7857 19.7857 16.7143 19.7143 15.5714L19.2857 4.14286C19.2143 1.78571 17.2857 0 15 0H4.71429C2.42857 0 0.5 1.78571 0.428571 4.14286L0 15.5714V15.7143C0 18.0714 1.92857 20 4.28571 20ZM1.85714 4.14286C1.92857 2.64286 3.14286 1.42857 4.71429 1.42857H15.0714C16.6429 1.42857 17.8571 2.57143 17.9286 4.14286L18.3571 15.5714C18.3571 16.3571 18.0714 17.0714 17.5714 17.6429C17.0714 18.2143 16.3571 18.5714 15.5714 18.5714H4.28571C2.71429 18.5714 1.42857 17.2857 1.42857 15.7143L1.85714 4.14286Z" fill="white"/>
<path id="Path" d="M9.85718 8.57143C7.07146 8.57143 4.85718 6.35714 4.85718 3.57143C4.85718 3.14286 5.14289 2.85714 5.57146 2.85714C6.00003 2.85714 6.28575 3.14286 6.28575 3.57143C6.28575 5.57143 7.85718 7.14286 9.85718 7.14286C11.8572 7.14286 13.4286 5.57143 13.4286 3.57143C13.4286 3.14286 13.7143 2.85714 14.1429 2.85714C14.5715 2.85714 14.8572 3.14286 14.8572 3.57143C14.8572 6.35714 12.6429 8.57143 9.85718 8.57143Z" fill="white"/>
</g>
</svg>
