<svg width="20" height="20" viewBox="0 0 20 20" fill="none" xmlns="http://www.w3.org/2000/svg">
<g id="linkedin">
<circle id="Oval" cx="7.27287" cy="7.27273" r="0.909102" fill="black"/>
<rect id="Rectangle" x="6.36377" y="8.63637" width="1.81816" height="5" fill="black"/>
<path id="Shape" fill-rule="evenodd" clip-rule="evenodd" d="M0 10C0 4.47715 4.47715 0 10 0C15.5229 0 20 4.47715 20 10C20 15.5229 15.5229 20 10 20C4.47715 20 0 15.5229 0 10ZM0.909102 10C0.909102 15.0208 4.97922 19.0909 10 19.0909C15.0208 19.0909 19.0909 15.0208 19.0909 10C19.0909 4.97922 15.0208 0.909102 10 0.909102C4.97922 0.909102 0.909102 4.97922 0.909102 10Z" fill="black"/>
<path id="Path" d="M12.4362 8.63637C11.0726 8.63637 10.909 9.44547 10.909 9.44547V8.63637H9.09082V13.6364H10.909V10.9091C10.909 10.9091 10.909 10 11.6817 10C12.1363 10 12.2726 10.4045 12.2726 10.9091V13.6364H14.0908V10.9091C14.0908 9.48637 13.4726 8.63637 12.4362 8.63637Z" fill="black"/>
</g>
</svg>
