<svg width="23" height="20" viewBox="0 0 23 20" fill="none" xmlns="http://www.w3.org/2000/svg">
<g id="heart">
<path id="Shape" fill-rule="evenodd" clip-rule="evenodd" d="M19.3029 0.482504C20.4175 0.948476 21.3613 1.74676 22.0056 2.76858C22.6804 3.83503 23.0238 5.13202 22.9987 6.51917C22.8872 12.6862 13.6998 18.2952 11.8591 19.3569C11.6369 19.4851 11.3631 19.4851 11.1409 19.3569C9.30043 18.2953 0.113792 12.6874 0.00130768 6.52024C-0.0240283 5.13301 0.319221 3.83589 0.993949 2.76926C1.63822 1.74729 2.58194 0.948843 3.6965 0.482728C4.95935 -0.0477105 6.37785 -0.143215 7.79842 0.207177C9.10035 0.528145 10.3685 1.22444 11.5 2.23455C12.6314 1.22453 13.8994 0.528279 15.2012 0.207267C16.6217 -0.14299 18.0401 -0.0475757 19.3029 0.482504ZM17.7178 13.2161C20.1963 10.8121 21.5255 8.48733 21.5615 6.49334V6.4932C21.6008 4.3161 20.5485 2.56464 18.7462 1.80793C16.6326 0.920179 14.0521 1.65703 12.0124 3.73108C11.8773 3.86847 11.6926 3.94585 11.4999 3.94585C11.3072 3.94585 11.1226 3.86847 10.9875 3.73108C9.51929 2.23815 7.77084 1.43799 6.11793 1.43799C5.47787 1.43554 4.8438 1.56137 4.25317 1.80806C2.45104 2.56504 1.39883 4.31678 1.43854 6.49401C1.47493 8.48796 2.80417 10.8125 5.28279 13.2164C7.57785 15.4427 10.1883 17.1205 11.5 17.9012C12.8117 17.1204 15.4225 15.4424 17.7178 13.2161Z" fill="white"/>
</g>
</svg>
