<svg width="18" height="19" viewBox="0 0 18 19" fill="none" xmlns="http://www.w3.org/2000/svg">
<g id="Vector">
<path id="Vector-24" fill-rule="evenodd" clip-rule="evenodd" d="M3.22292 17.5528L0.491583 18.8338C0.387049 18.8837 0.263098 18.8787 0.163308 18.8206C0.0635174 18.7625 0.0018554 18.6594 0 18.5475V0.45249C0.00233282 0.34087 0.0641862 0.238172 0.163895 0.180369C0.263604 0.122565 0.387272 0.117712 0.491583 0.167508L3.22292 1.44857C3.33211 1.49947 3.46118 1.49174 3.56292 1.42822L5.76158 0.0535151C5.87615 -0.0178384 6.02385 -0.0178384 6.13842 0.0535151L8.31158 1.41057C8.42615 1.48193 8.57385 1.48193 8.68842 1.41057L10.8616 0.0535151C10.9762 -0.0178384 11.1238 -0.0178384 11.2384 0.0535151L13.4357 1.42822C13.5374 1.49174 13.6665 1.49947 13.7757 1.44857L16.5084 0.167508C16.6127 0.117712 16.7364 0.122565 16.8361 0.180369C16.9358 0.238172 16.9977 0.34087 17 0.45249V18.5475C16.9977 18.6591 16.9358 18.7618 16.8361 18.8196C16.7364 18.8774 16.6127 18.8823 16.5084 18.8325L13.7771 17.5514C13.6679 17.5005 13.5388 17.5083 13.4371 17.5718L11.2384 18.9465C11.1238 19.0178 10.9762 19.0178 10.8616 18.9465L8.68842 17.5894C8.57385 17.5181 8.42615 17.5181 8.31158 17.5894L6.13842 18.9465C6.02385 19.0178 5.87615 19.0178 5.76158 18.9465L3.56433 17.5718C3.462 17.5082 3.33225 17.501 3.22292 17.5528Z" stroke="white" stroke-width="1.5" stroke-linecap="round" stroke-linejoin="round"/>
<path id="Vector-25" d="M4.25 7.39301C3.83579 7.39301 3.5 7.7288 3.5 8.14301C3.5 8.55723 3.83579 8.89301 4.25 8.89301V7.39301ZM12.75 8.89301C13.1642 8.89301 13.5 8.55723 13.5 8.14301C13.5 7.7288 13.1642 7.39301 12.75 7.39301V8.89301ZM5.66667 10.1071C5.25245 10.1071 4.91667 10.4429 4.91667 10.8571C4.91667 11.2713 5.25245 11.6071 5.66667 11.6071V10.1071ZM11.3333 11.6071C11.7475 11.6071 12.0833 11.2713 12.0833 10.8571C12.0833 10.4429 11.7475 10.1071 11.3333 10.1071V11.6071ZM4.25 8.89301H12.75V7.39301H4.25V8.89301ZM5.66667 11.6071H11.3333V10.1071H5.66667V11.6071Z" fill="white"/>
</g>
</svg>
