<svg width="20" height="20" viewBox="0 0 20 20" fill="none" xmlns="http://www.w3.org/2000/svg">
<g id="twitter">
<path id="Path" d="M14.75 6.5C14.3831 6.71742 13.982 6.87109 13.5637 6.95453C13.2082 6.58172 12.7152 6.37133 12.2 6.3727C11.1853 6.36508 10.3538 7.17625 10.3364 8.19086C10.3368 8.33172 10.3536 8.47207 10.3864 8.60906C8.89195 8.53852 7.49621 7.84231 6.54094 6.6909C6.37754 6.96625 6.28973 7.27984 6.28641 7.6C6.28645 8.21731 6.59969 8.79238 7.11824 9.12727C6.82211 9.11762 6.53242 9.0382 6.27277 8.89543C6.27277 8.89543 6.27277 8.89543 6.27277 8.91816C6.2698 9.80477 6.8977 10.5682 7.76824 10.7363C7.49383 10.8095 7.20648 10.8204 6.92734 10.7682C7.17832 11.5192 7.87648 12.0296 8.66824 12.0409C8.0091 12.5535 7.19867 12.8332 6.36371 12.8364C6.2118 12.8362 6.06 12.8271 5.90918 12.8091C6.76457 13.3502 7.75609 13.6371 8.76828 13.6364C11.6547 13.6891 14.0374 11.3919 14.0902 8.50543C14.0907 8.47484 14.091 8.44426 14.091 8.41363C14.091 8.33484 14.091 8.25606 14.091 8.17727C14.4473 7.91617 14.755 7.59465 15.0001 7.22727C14.6589 7.37668 14.2974 7.47469 13.9274 7.51816C14.3165 7.29039 14.6091 6.92832 14.75 6.5Z" fill="black"/>
<path id="Shape" fill-rule="evenodd" clip-rule="evenodd" d="M0 10C0 4.47715 4.47715 0 10 0C15.5229 0 20 4.47715 20 10C20 15.5229 15.5229 20 10 20C4.47715 20 0 15.5229 0 10ZM0.909102 10C0.909102 15.0208 4.97922 19.0909 10 19.0909C15.0208 19.0909 19.0909 15.0208 19.0909 10C19.0909 4.97922 15.0208 0.909102 10 0.909102C4.97922 0.909102 0.909102 4.97922 0.909102 10Z" fill="black"/>
</g>
</svg>
